<svg width="500" height="932" viewBox="0 0 500 932" fill="none" xmlns="http://www.w3.org/2000/svg">
<g clip-path="url(#clip0_73_3)">
<rect width="600" height="932" />
<g opacity="0.53">
<path d="M-3.69138 371.677L-3.69138 422.162C-3.69138 427.398 -1.67551 432.232 1.95304 435.857C5.58158 439.616 10.2852 441.631 15.3921 441.631C26.6809 441.631 35.8194 451.029 35.8194 462.442L35.8194 551.461L34.4755 551.461L34.4755 462.442C34.4755 451.701 25.8745 442.973 15.3921 442.973C10.0165 442.973 4.77522 440.825 1.01229 436.797C-2.88504 432.903 -4.90088 427.667 -4.90088 422.162L-4.90089 371.677L-3.69138 371.677Z" fill="white" fill-opacity="0.2"/>
<path d="M-9.33594 366.709C-9.33594 369.529 -7.0513 371.677 -4.3635 371.677C-1.5413 371.677 0.608964 369.394 0.608964 366.709C0.608964 363.89 -1.67569 361.741 -4.3635 361.741C-7.05131 361.741 -9.33594 364.024 -9.33594 366.709Z" fill="white" fill-opacity="0.2"/>
<path d="M30.0405 551.596C30.0405 554.415 32.3252 556.564 35.013 556.564C37.8352 556.564 39.9854 554.281 39.9854 551.596C39.9854 548.776 37.7008 546.628 35.013 546.628C32.3252 546.628 30.0405 548.91 30.0405 551.596Z" fill="white" fill-opacity="0.2"/>
<path d="M290.624 42.7211L290.624 93.2058C290.624 98.4423 292.639 103.276 296.268 106.901C299.897 110.661 304.6 112.675 309.707 112.675C320.996 112.675 330.134 122.073 330.134 133.486L330.134 222.506L328.79 222.506L328.79 133.486C328.79 122.745 320.189 114.017 309.707 114.017C304.331 114.017 299.09 111.869 295.327 107.841C291.43 103.947 289.414 98.7108 289.414 93.2058L289.414 42.7211L290.624 42.7211Z" fill="white" fill-opacity="0.2"/>
<path d="M284.979 37.7533C284.979 40.5729 287.264 42.7212 289.951 42.7212C292.774 42.7212 294.924 40.4387 294.924 37.7533C294.924 34.9337 292.639 32.7854 289.951 32.7854C287.264 32.7854 284.979 35.068 284.979 37.7533Z" fill="white" fill-opacity="0.2"/>
<path d="M324.355 222.64C324.355 225.459 326.64 227.608 329.328 227.608C332.15 227.608 334.3 225.325 334.3 222.64C334.3 219.82 332.016 217.672 329.328 217.672C326.64 217.672 324.355 219.954 324.355 222.64Z" fill="white" fill-opacity="0.2"/>
<path d="M3.0281 470.767C0.205906 470.767 -1.94434 473.049 -1.94434 475.734C-1.94434 478.554 0.340297 480.702 3.02811 480.702C5.8503 480.702 8.00057 478.42 8.00057 475.734C8.13496 473.049 5.8503 470.767 3.0281 470.767Z" fill="white" fill-opacity="0.2"/>
<path d="M164.834 244.794L164.834 95.3541C164.834 83.9413 174.241 74.5426 185.664 74.5426L240.63 74.5426C251.381 74.5426 260.117 65.8152 260.117 55.0738L260.117 -8.03202L261.461 -8.03202L261.461 55.0738C261.461 66.4865 252.053 75.8853 240.63 75.8853L185.664 75.8853C180.423 75.8853 175.585 77.8993 171.957 81.6588C168.328 85.284 166.178 90.2519 166.178 95.3541L166.178 244.794L164.834 244.794Z" fill="white" fill-opacity="0.2"/>
<path d="M160.534 249.762C160.534 246.942 162.818 244.794 165.506 244.794C168.328 244.794 170.479 247.077 170.479 249.762C170.479 252.582 168.194 254.73 165.506 254.73C162.684 254.73 160.534 252.582 160.534 249.762Z" fill="white" fill-opacity="0.2"/>
<path d="M295.058 233.113L225.847 233.113C220.337 233.113 215.096 230.964 211.199 226.936C207.301 223.043 205.017 217.806 205.017 212.301L205.017 165.71C205.017 154.969 196.281 146.242 185.53 146.242L122.367 146.242L122.367 144.899L185.53 144.899C196.953 144.899 206.361 154.298 206.361 165.71L206.361 212.301C206.361 217.538 208.377 222.371 212.14 225.997C215.768 229.622 220.741 231.77 225.847 231.77L295.058 231.77L295.058 233.113Z" fill="white" fill-opacity="0.2" stroke="white" stroke-opacity="0.2" stroke-miterlimit="10"/>
<path d="M300.031 237.544C297.208 237.544 295.058 235.261 295.058 232.576C295.058 229.756 297.343 227.608 300.031 227.608C302.853 227.608 305.003 229.89 305.003 232.576C305.003 235.261 302.853 237.544 300.031 237.544Z" fill="white" fill-opacity="0.2"/>
<path d="M122.366 150.672C119.544 150.672 117.394 148.39 117.394 145.704C117.394 142.885 119.679 140.737 122.366 140.737C125.189 140.737 127.339 143.019 127.339 145.704C127.339 148.39 125.054 150.672 122.366 150.672Z" fill="white" fill-opacity="0.2"/>
<path d="M-22.6406 329.517L-22.6406 200.889C-22.6406 195.384 -20.4904 190.147 -16.4587 186.253C-12.5614 182.36 -7.32013 180.077 -1.81012 180.077L1.54964 180.077C6.79087 180.077 11.6289 178.063 15.2575 174.303C18.886 170.678 21.0362 165.71 21.0362 160.608L21.0362 58.2963L22.3801 58.2963L22.3802 160.608C22.3802 166.113 20.2299 171.35 16.1982 175.243C12.3009 179.137 7.05965 181.42 1.54964 181.42L-1.81012 181.42C-7.05134 181.42 -11.8894 183.434 -15.5179 187.193C-19.1465 190.818 -21.2967 195.786 -21.2967 200.889L-21.2967 329.517L-22.6406 329.517Z" fill="white" fill-opacity="0.2"/>
<path d="M16.6016 58.2963C16.6016 55.4766 18.8862 53.3283 21.574 53.3283C24.3962 53.3283 26.5464 55.6109 26.5464 58.2963C26.5464 61.1159 24.2618 63.2642 21.574 63.2642C18.8862 63.2642 16.6016 61.1159 16.6016 58.2963Z" fill="white" fill-opacity="0.2"/>
<path d="M67.5357 80.3161L67.5357 130.801C67.5357 136.037 69.5515 140.871 73.1801 144.496C76.8086 148.256 81.5123 150.27 86.6191 150.27C97.9079 150.27 107.046 159.668 107.046 171.081L107.046 260.101L105.703 260.101L105.703 171.081C105.703 160.34 97.1016 151.612 86.6191 151.612C81.2435 151.612 76.0023 149.464 72.2393 145.436C68.342 141.542 66.3262 136.306 66.3262 130.801L66.3262 80.3161L67.5357 80.3161Z" fill="white" fill-opacity="0.2"/>
<path d="M61.8911 75.3483C61.8911 78.1679 64.1757 80.3161 66.8636 80.3161C69.6858 80.3161 71.836 78.0336 71.836 75.3483C71.836 72.5287 69.5514 70.3804 66.8636 70.3804C64.1757 70.3804 61.8911 72.6629 61.8911 75.3483Z" fill="white" fill-opacity="0.2"/>
<path d="M101.268 260.235C101.268 263.054 103.552 265.203 106.24 265.203C109.062 265.203 111.212 262.92 111.212 260.235C111.212 257.415 108.928 255.267 106.24 255.267C103.552 255.267 101.268 257.55 101.268 260.235Z" fill="white" fill-opacity="0.2"/>
<path d="M-70.3492 61.2502L-70.3492 230.025C-70.3492 235.261 -68.3334 240.095 -64.5704 243.72C-60.9419 247.345 -55.9694 249.493 -50.8626 249.493L39.9853 249.493C45.4953 249.493 50.7365 251.642 54.6339 255.67C58.5312 259.564 60.8158 264.8 60.8158 270.305L60.8158 364.829L59.4719 364.829L59.4719 270.305C59.4719 265.068 57.4561 260.235 53.6931 256.61C50.0646 252.984 45.0921 250.836 39.9853 250.836L-50.8626 250.836C-56.3726 250.836 -61.6138 248.688 -65.5112 244.66C-69.4085 240.766 -71.6931 235.53 -71.6931 230.025L-71.6931 61.2502L-70.3492 61.2502Z" fill="white" fill-opacity="0.2" stroke="white" stroke-opacity="0.2" stroke-miterlimit="10"/>
<path d="M55.0371 363.889C55.0371 366.709 57.3217 368.857 60.0096 368.857C62.8317 368.857 64.982 366.575 64.982 363.889C64.982 361.07 62.6974 358.922 60.0096 358.922C57.1874 358.787 55.0371 361.07 55.0371 363.889Z" fill="white" fill-opacity="0.2"/>
<path d="M408.752 340.258L408.752 211.63C408.752 206.125 410.903 200.889 414.934 196.995C418.832 193.101 424.073 190.818 429.583 190.818L432.943 190.818C438.184 190.818 443.022 188.804 446.651 185.045C450.279 181.42 452.429 176.452 452.429 171.35L452.429 69.0376L453.773 69.0376L453.773 171.35C453.773 176.855 451.623 182.091 447.591 185.985C443.694 189.879 438.453 192.161 432.943 192.161L429.583 192.161C424.342 192.161 419.504 194.175 415.875 197.935C412.247 201.56 410.096 206.528 410.096 211.63L410.096 340.258L408.752 340.258Z" fill="white" fill-opacity="0.2"/>
<path d="M404.452 345.361C404.452 342.541 406.737 340.393 409.425 340.393C412.247 340.393 414.397 342.675 414.397 345.361C414.397 348.18 412.112 350.328 409.425 350.328C406.602 350.328 404.452 348.046 404.452 345.361Z" fill="white" fill-opacity="0.2"/>
<path d="M447.995 69.0377C447.995 66.218 450.279 64.0697 452.967 64.0697C455.789 64.0697 457.94 66.3523 457.94 69.0377C457.94 71.8573 455.655 74.0056 452.967 74.0056C450.279 74.0056 447.995 71.8573 447.995 69.0377Z" fill="white" fill-opacity="0.2"/>
<path d="M485.355 576.57L485.355 447.941C485.355 442.436 487.505 437.2 491.537 433.306C495.434 429.412 500.675 427.13 506.185 427.13L509.545 427.13C514.786 427.13 519.625 425.116 523.253 421.356C526.882 417.731 529.032 412.763 529.032 407.661L529.032 305.349L530.376 305.349L530.376 407.661C530.376 413.166 528.226 418.402 524.194 422.296C520.297 426.19 515.055 428.472 509.545 428.472L506.185 428.472C500.944 428.472 496.106 430.486 492.478 434.246C488.849 437.871 486.699 442.839 486.699 447.941L486.699 576.57L485.355 576.57Z" fill="white" fill-opacity="0.2"/>
<path d="M481.055 581.672C481.055 578.852 483.339 576.704 486.027 576.704C488.849 576.704 491 578.986 491 581.672C491 584.491 488.715 586.64 486.027 586.64C483.205 586.64 481.055 584.357 481.055 581.672Z" fill="white" fill-opacity="0.2"/>
<path d="M498.929 91.0575L498.929 141.542C498.929 146.779 500.945 151.612 504.573 155.238C508.202 158.997 512.905 161.011 518.012 161.011C529.301 161.011 538.44 170.41 538.44 181.823L538.44 270.842L537.096 270.842L537.096 181.823C537.096 171.081 528.495 162.354 518.012 162.354C512.637 162.354 507.395 160.205 503.632 156.177C499.735 152.284 497.719 147.047 497.719 141.542L497.719 91.0575L498.929 91.0575Z" fill="white" fill-opacity="0.2" stroke="white" stroke-opacity="0.2" stroke-miterlimit="10"/>
<path d="M493.284 86.0897C493.284 88.9093 495.569 91.0575 498.257 91.0575C501.079 91.0575 503.229 88.775 503.229 86.0897C503.229 83.27 500.944 81.1218 498.257 81.1218C495.569 81.1218 493.284 83.4043 493.284 86.0897Z" fill="white" fill-opacity="0.2"/>
<path d="M361.044 71.9916L361.044 240.766C361.044 246.002 363.06 250.836 366.823 254.461C370.451 258.087 375.424 260.235 380.531 260.235L471.379 260.235C476.889 260.235 482.13 262.383 486.027 266.411C489.925 270.305 492.209 275.541 492.209 281.046L492.209 375.571L490.865 375.571L490.865 281.046C490.865 275.81 488.849 270.976 485.086 267.351C481.458 263.726 476.485 261.578 471.379 261.578L380.531 261.578C375.021 261.578 369.779 259.429 365.882 255.401C361.985 251.507 359.7 246.271 359.7 240.766L359.7 71.9916L361.044 71.9916Z" fill="white" fill-opacity="0.2"/>
<path d="M364.404 62.9956C365.479 64.0698 366.016 65.5467 366.016 67.0236C366.016 68.5006 365.479 69.9775 364.404 71.0517C363.329 72.1258 361.85 72.6629 360.372 72.6629C358.894 72.6629 357.415 72.1258 356.34 71.0517C355.265 69.9775 354.728 68.5006 354.728 67.0236C354.728 63.9355 357.281 61.3844 360.372 61.3844C361.85 61.3844 363.328 61.9215 364.404 62.9956Z" fill="white" fill-opacity="0.2"/>
<path d="M486.43 374.631C486.43 377.45 488.715 379.599 491.403 379.599C494.225 379.599 496.375 377.316 496.375 374.631C496.375 371.811 494.09 369.663 491.403 369.663C488.58 369.529 486.43 371.811 486.43 374.631Z" fill="white" fill-opacity="0.2"/>
<path d="M420.848 905.525L420.848 776.897C420.848 771.392 422.998 766.155 427.03 762.262C430.927 758.368 436.168 756.085 441.678 756.085L445.038 756.085C450.279 756.085 455.117 754.071 458.746 750.312C462.374 746.687 464.525 741.719 464.525 736.617L464.525 634.305L465.868 634.305L465.868 736.617C465.868 742.122 463.718 747.358 459.687 751.252C455.789 755.146 450.548 757.428 445.038 757.428L441.678 757.428C436.437 757.428 431.599 759.442 427.97 763.202C424.342 766.827 422.192 771.795 422.192 776.897L422.192 905.525L420.848 905.525Z" fill="white" fill-opacity="0.2"/>
<path d="M416.547 910.627C416.547 907.808 418.832 905.66 421.52 905.66C424.342 905.66 426.492 907.942 426.492 910.627C426.492 913.447 424.208 915.595 421.52 915.595C418.698 915.595 416.547 913.313 416.547 910.627Z" fill="white" fill-opacity="0.2"/>
<path d="M460.09 634.305C460.09 631.485 462.374 629.337 465.062 629.337C467.885 629.337 470.035 631.619 470.035 634.305C470.035 637.124 467.75 639.272 465.062 639.272C462.374 639.272 460.09 637.124 460.09 634.305Z" fill="white" fill-opacity="0.2"/>
<path d="M409.559 603.692L538.305 603.692C543.815 603.692 549.056 605.84 552.953 609.868C556.85 613.762 559.135 618.998 559.135 624.503L559.135 627.86C559.135 633.096 561.151 637.93 564.914 641.555C568.542 645.18 573.515 647.329 578.622 647.329L681.027 647.329L681.027 648.671L578.622 648.671C573.112 648.671 567.87 646.523 563.973 642.495C560.076 638.601 557.791 633.365 557.791 627.86L557.791 624.503C557.791 619.267 555.775 614.433 552.012 610.808C548.384 607.183 543.411 605.034 538.305 605.034L409.559 605.034L409.559 603.692Z" fill="white" fill-opacity="0.2" stroke="white" stroke-opacity="0.2" stroke-miterlimit="10"/>
<path d="M404.452 599.261C407.274 599.261 409.424 601.543 409.424 604.229C409.424 607.048 407.14 609.197 404.452 609.197C401.63 609.197 399.479 606.914 399.479 604.229C399.479 601.543 401.764 599.261 404.452 599.261Z" fill="white" fill-opacity="0.2"/>
<path d="M286.592 701.976L286.592 752.46C286.592 757.697 288.608 762.53 292.236 766.155C295.865 769.915 300.568 771.929 305.675 771.929C316.964 771.929 326.103 781.328 326.103 792.74L326.103 881.76L324.759 881.76L324.759 792.74C324.759 781.999 316.158 773.272 305.675 773.272C300.3 773.272 295.058 771.123 291.295 767.095C287.398 763.202 285.382 757.965 285.382 752.46L285.382 701.976L286.592 701.976Z" fill="white" fill-opacity="0.2"/>
<path d="M280.947 697.008C280.947 699.827 283.232 701.976 285.92 701.976C288.742 701.976 290.892 699.693 290.892 697.008C290.892 694.188 288.607 692.04 285.92 692.04C283.232 692.04 280.947 694.322 280.947 697.008Z" fill="white" fill-opacity="0.2"/>
<path d="M320.324 881.894C320.324 884.714 322.608 886.862 325.296 886.862C328.118 886.862 330.269 884.58 330.269 881.894C330.269 879.075 327.984 876.926 325.296 876.926C322.608 876.926 320.324 879.209 320.324 881.894Z" fill="white" fill-opacity="0.2"/>
<path d="M373.139 637.259L373.139 806.033C373.139 811.269 375.155 816.103 378.918 819.728C382.547 823.354 387.519 825.502 392.626 825.502L483.474 825.502C488.984 825.502 494.225 827.65 498.122 831.678C502.02 835.572 504.304 840.808 504.304 846.313L504.304 940.838L502.96 940.838L502.96 846.313C502.96 841.077 500.945 836.243 497.182 832.618C493.553 828.993 488.581 826.844 483.474 826.844L392.626 826.844C387.116 826.844 381.875 824.696 377.977 820.668C374.08 816.774 371.795 811.538 371.795 806.033L371.795 637.259L373.139 637.259Z" fill="white" fill-opacity="0.2" stroke="white" stroke-opacity="0.2" stroke-miterlimit="10"/>
<path d="M376.499 628.263C377.574 629.337 378.112 630.814 378.112 632.291C378.112 633.768 377.574 635.244 376.499 636.319C375.424 637.393 373.945 637.93 372.467 637.93C370.989 637.93 369.511 637.393 368.435 636.319C367.36 635.244 366.823 633.768 366.823 632.291C366.823 629.202 369.376 626.651 372.467 626.651C373.945 626.651 375.424 627.188 376.499 628.263Z" fill="white" fill-opacity="0.2"/>
<path d="M174.241 686.266L174.241 835.706C174.241 847.119 183.649 856.518 195.072 856.518L250.037 856.518C260.789 856.518 269.524 865.245 269.524 875.986L269.524 939.092L270.868 939.092L270.868 875.986C270.868 864.574 261.461 855.175 250.037 855.175L195.072 855.175C189.83 855.175 184.992 853.161 181.364 849.401C177.735 845.776 175.585 840.808 175.585 835.706L175.585 686.266L174.241 686.266Z" fill="white" fill-opacity="0.2" stroke="white" stroke-opacity="0.2" stroke-miterlimit="10"/>
<path d="M169.941 681.298C169.941 684.118 172.226 686.266 174.913 686.266C177.736 686.266 179.886 683.984 179.886 681.298C179.886 678.479 177.601 676.33 174.913 676.33C172.091 676.196 169.941 678.479 169.941 681.298Z" fill="white" fill-opacity="0.2"/>
<path d="M319.249 677.673L250.038 677.673C244.528 677.673 239.286 679.821 235.389 683.849C231.492 687.743 229.207 692.98 229.207 698.485L229.207 745.075C229.207 755.817 220.472 764.544 209.721 764.544L146.557 764.544L146.557 765.887L209.721 765.887C221.144 765.887 230.551 756.488 230.551 745.075L230.551 698.485C230.551 693.248 232.567 688.415 236.33 684.789C239.958 681.164 244.931 679.016 250.038 679.016L319.249 679.016L319.249 677.673Z" fill="white" fill-opacity="0.2"/>
<path d="M324.221 673.377C321.399 673.377 319.249 675.659 319.249 678.344C319.249 681.164 321.533 683.312 324.221 683.312C327.043 683.312 329.193 681.03 329.193 678.344C329.193 675.659 327.043 673.377 324.221 673.377Z" fill="white" fill-opacity="0.2"/>
<path d="M146.557 760.248C143.735 760.248 141.584 762.53 141.584 765.216C141.584 768.035 143.869 770.184 146.557 770.184C149.379 770.184 151.529 767.901 151.529 765.216C151.529 762.396 149.245 760.248 146.557 760.248Z" fill="white" fill-opacity="0.2"/>
<path d="M-13.2334 601.409L-13.2334 730.037C-13.2334 735.542 -11.0832 740.779 -7.05146 744.673C-3.15414 748.566 2.0871 750.849 7.59711 750.849L10.9569 750.849C16.1981 750.849 21.0361 752.863 24.6647 756.622C28.2932 760.248 30.4435 765.216 30.4435 770.318L30.4435 872.764L31.7874 872.764L31.7874 770.452C31.7874 764.947 29.6371 759.711 25.6054 755.817C21.7081 751.923 16.4669 749.641 10.9569 749.641L7.59711 749.641C2.35588 749.641 -2.48217 747.627 -6.11071 743.867C-9.73925 740.242 -11.8895 735.274 -11.8895 730.172L-11.8895 601.543L-13.2334 601.409Z" fill="white" fill-opacity="0.2"/>
<path d="M26.0088 872.764C26.0088 875.584 28.2934 877.732 30.9812 877.732C33.8034 877.732 35.9537 875.449 35.9537 872.764C35.9537 869.944 33.669 867.796 30.9812 867.796C28.2934 867.662 26.0088 869.944 26.0088 872.764Z" fill="white" fill-opacity="0.2"/>
<path d="M76.9429 850.61L76.9429 800.125C76.9429 794.889 78.9588 790.055 82.5873 786.43C86.2159 782.67 90.9195 780.656 96.0264 780.656C107.315 780.656 116.454 771.258 116.454 759.845L116.454 670.825L115.11 670.825L115.11 759.845C115.11 770.586 106.509 779.314 96.0264 779.314C90.6507 779.314 85.4095 781.462 81.6466 785.49C77.7492 789.384 75.7334 794.62 75.7334 800.125L75.7334 850.61L76.9429 850.61Z" fill="white" fill-opacity="0.2"/>
<path d="M71.2983 855.712C71.2983 852.892 73.583 850.744 76.2708 850.744C79.093 850.744 81.2432 853.027 81.2432 855.712C81.2432 858.532 78.9586 860.68 76.2708 860.68C73.583 860.68 71.2983 858.397 71.2983 855.712Z" fill="white" fill-opacity="0.2"/>
<path d="M110.675 670.825C110.675 668.006 112.959 665.858 115.647 665.858C118.469 665.858 120.62 668.14 120.62 670.825C120.62 673.645 118.335 675.793 115.647 675.793C112.959 675.793 110.675 673.511 110.675 670.825Z" fill="white" fill-opacity="0.2"/>
<path d="M-60.9417 869.676L-60.9417 700.901C-60.9417 695.665 -58.9259 690.831 -55.163 687.206C-51.5344 683.581 -46.562 681.433 -41.4551 681.433L49.3928 681.433C54.9028 681.433 60.144 679.284 64.0413 675.256C67.9387 671.363 70.2233 666.126 70.2233 660.621L70.2233 566.097L68.8794 566.097L68.8794 660.621C68.8794 665.858 66.8635 670.691 63.1006 674.316C59.4721 677.942 54.4996 680.09 49.3928 680.09L-41.4551 680.09C-46.9651 680.09 -52.2064 682.238 -56.1037 686.266C-60.001 690.16 -62.2857 695.396 -62.2857 700.901L-62.2856 869.676L-60.9417 869.676Z" fill="white" fill-opacity="0.2" stroke="white" stroke-opacity="0.2" stroke-miterlimit="10"/>
<path d="M64.4443 567.171C64.4443 564.351 66.729 562.203 69.4168 562.203C72.239 562.203 74.3892 564.485 74.3892 567.171C74.3892 569.99 72.1046 572.139 69.4168 572.139C66.5946 572.139 64.4443 569.99 64.4443 567.171Z" fill="white" fill-opacity="0.2"/>
</g>
</g>
<defs>
<clipPath id="clip0_73_3">
<rect width="600" height="932" />
</clipPath>
</defs>
</svg>
